<svg width="18" height="14" viewBox="0 0 18 14" fill="none" xmlns="http://www.w3.org/2000/svg">
<path fill-rule="evenodd" clip-rule="evenodd" d="M0 12.2501C1.67022 13.2879 3.47734 13.8 5.42136 13.8C6.68087 13.8 7.87203 13.6113 8.96726 13.2204C10.0625 12.8295 11.0072 12.304 11.7875 11.6436C12.5815 10.9698 13.2524 10.2151 13.8136 9.36603C14.3748 8.51692 14.7993 7.6275 15.0731 6.68417C15.3469 5.7542 15.4976 4.82446 15.4976 3.8945V3.43631C16.2095 2.92422 16.7983 2.31768 17.25 1.63051C16.5791 1.91361 15.9084 2.10228 15.2238 2.18313C15.9905 1.73831 16.5107 1.09146 16.771 0.255939C16.0864 0.660223 15.3334 0.94333 14.5257 1.10504C13.8274 0.377332 12.965 0 11.9382 0C10.966 0 10.131 0.35038 9.43273 1.02419C8.74821 1.71158 8.39227 2.52015 8.39227 3.47684C8.39227 3.70605 8.43345 3.97557 8.50179 4.28541C7.05062 4.20456 5.69517 3.85418 4.42208 3.20732C3.16257 2.57384 2.08093 1.71136 1.20475 0.633271C0.876179 1.1859 0.711896 1.76527 0.711896 2.38517C0.711896 2.9917 0.862599 3.54412 1.1364 4.05621C1.42401 4.5683 1.80734 4.97259 2.30019 5.29602C1.7252 5.28243 1.17759 5.1343 0.684734 4.86478V4.90532C0.684734 5.74084 0.95854 6.48213 1.49257 7.1154C2.0266 7.76226 2.71112 8.15317 3.53254 8.31489C3.23135 8.39574 2.91636 8.43628 2.5878 8.43628C2.34137 8.43628 2.12233 8.4227 1.93066 8.38238C2.16351 9.08314 2.57422 9.64913 3.17659 10.1073C3.79276 10.5521 4.47728 10.7811 5.24393 10.7947C3.95705 11.7919 2.49207 12.2907 0.835656 12.2907C0.56185 12.2907 0.274244 12.2771 0.00043809 12.2501H0Z" fill="#DEB8E9"/>
</svg>
